<svg xmlns="http://www.w3.org/2000/svg" viewBox="0 0 348.9 348.9"><path d="M334 11.8l-.4-.4a43.4 43.4 0 00-61.4 2.8l-155.4 170a15 15 0 00-3.2 5.4l-18.2 54.8a20.8 20.8 0 0019.7 27.4c2.9 0 5.7-.6 8.4-1.8l52.9-23.1c1.9-.9 3.6-2.1 5-3.6L336.8 73.2a43.5 43.5 0 00-2.8-61.4zM130.4 234.2l10.7-32 .9-1 20.3 18.5-.9 1-31 13.5zM314.6 53l-132 144.6-20.4-18.5L294.3 34.4a13.4 13.4 0 0119-.9l.5.4c5.4 5 5.8 13.6.8 19z"/><path d="M303.9 138.4a15 15 0 00-15 15v127.3c0 21-17.2 38.2-38.2 38.2H68.9c-21 0-38.1-17.1-38.1-38.2V100.4c0-21 17-38.1 38.1-38.1h131.6a15 15 0 000-30H68.9A68.2 68.2 0 00.8 100.4v180.3A68.2 68.2 0 0068.9 349h181.8a68.2 68.2 0 0068.1-68.2V153.4a15 15 0 00-15-15z"/></svg>